<svg width="51" height="52" viewBox="0 0 51 52" fill="none" xmlns="http://www.w3.org/2000/svg">
<path d="M11.1563 21.6621V29.6595M18.3526 26.9767V27.0096C18.3526 27.7122 18.0735 28.3859 17.5768 28.8826C17.08 29.3794 16.4063 29.6585 15.7038 29.6585C15.0013 29.6585 14.3275 29.3794 13.8308 28.8826C13.334 28.3859 13.055 27.7122 13.055 27.0096V24.3109C13.055 23.6084 13.334 22.9346 13.8308 22.4379C14.3275 21.9412 15.0013 21.6621 15.7038 21.6621C16.4063 21.6621 17.08 21.9412 17.5768 22.4379C18.0735 22.9346 18.3526 23.6084 18.3526 24.3109V24.3438M27.3488 29.6595V21.6621L32.6475 29.6595V21.6621M34.7045 28.783C35.1943 29.4205 35.8095 29.6585 36.6648 29.6585H37.8484C38.9502 29.6585 39.8438 28.766 39.8438 27.6641V27.6556C39.8438 26.5538 38.9513 25.6603 37.8484 25.6603H36.5426C36.0128 25.6603 35.5048 25.4498 35.1301 25.0752C34.7555 24.7006 34.5451 24.1925 34.5451 23.6628C34.5451 22.5578 35.4418 21.6621 36.5468 21.6621H37.7241C38.5794 21.6621 39.1946 21.9001 39.6855 22.5386M9.17578 17.2431L23.477 10.1085C24.0803 9.80753 24.7444 9.64885 25.4186 9.64462C26.0927 9.64038 26.7588 9.7907 27.3658 10.084L41.8253 17.0742M37.7167 45.3006V36.9461C37.7167 36.3826 37.4928 35.8421 37.0943 35.4435C36.6957 35.045 36.1552 34.8211 35.5917 34.8211H14.9919C14.4283 34.8211 13.8878 35.045 13.4893 35.4435C13.0908 35.8421 12.8669 36.3826 12.8669 36.9461V45.0318M22.9012 29.6595C22.1986 29.6595 21.5249 29.3804 21.0282 28.8837C20.5314 28.387 20.2523 27.7132 20.2523 27.0107V24.312C20.2523 23.6094 20.5314 22.9357 21.0282 22.439C21.5249 21.9422 22.1986 21.6631 22.9012 21.6631C23.6037 21.6631 24.2774 21.9422 24.7741 22.439C25.2709 22.9357 25.55 23.6094 25.55 24.312V27.0107C25.55 27.7132 25.2709 28.387 24.7741 28.8837C24.2774 29.3804 23.6037 29.6595 22.9012 29.6595Z" stroke="#FF774C" stroke-width="2.125" stroke-linecap="round" stroke-linejoin="round"/>
<path d="M25.5 48.8438C38.1163 48.8438 48.3438 38.6163 48.3438 26C48.3438 13.3837 38.1163 3.15625 25.5 3.15625C12.8837 3.15625 2.65625 13.3837 2.65625 26C2.65625 38.6163 12.8837 48.8438 25.5 48.8438Z" stroke="#FF774C" stroke-width="2.125" stroke-linecap="round" stroke-linejoin="round"/>
</svg>
