<svg width="152" height="15" viewBox="0 0 152 15" fill="none" xmlns="http://www.w3.org/2000/svg">
<path d="M144.675 14.7808C148.551 14.7808 151.693 11.6342 151.693 7.75259C151.693 3.87101 148.551 0.724365 144.675 0.724365C140.798 0.724365 137.656 3.87101 137.656 7.75259C137.656 11.6342 140.798 14.7808 144.675 14.7808Z" fill="#191B1C"/>
<path d="M14.3188 7.75259C14.3188 11.632 11.1744 14.7808 7.30044 14.7808C3.42649 14.7808 0.282043 11.632 0.282043 7.75259C0.282043 3.87321 3.42649 0.724365 7.30044 0.724365C11.1744 0.724365 14.3188 3.84802 14.3188 7.75259Z" fill="#191B1C"/>
<path d="M41.0845 7.75259C41.0845 11.632 37.9401 14.7808 34.0661 14.7808C30.1922 14.7808 27.0477 11.632 27.0477 7.75259C27.0477 3.87321 30.1922 0.724365 34.0661 0.724365C37.9401 0.724365 41.0845 3.84802 41.0845 7.75259Z" fill="#191B1C"/>
</svg>
