<svg width="12" height="12" viewBox="0 0 12 12" fill="none" xmlns="http://www.w3.org/2000/svg">
<path d="M10.8778 5.75185C10.8778 8.32131 8.78986 10.4121 6.22399 10.4121C3.65813 10.4121 1.57022 8.32131 1.57022 5.75185C1.57022 3.18239 3.65813 1.09155 6.22399 1.09155C8.78986 1.09155 10.8778 3.18239 10.8778 5.75185Z" fill="url(#paint0_linear_0_288)"/>
<path d="M9.87164 5.75203C9.87164 7.76729 8.23654 9.40469 6.22409 9.40469C4.21164 9.40469 2.57654 7.76729 2.57654 5.75203C2.57654 3.73677 4.21164 2.09937 6.22409 2.09937C8.23654 2.09937 9.87164 3.73677 9.87164 5.75203Z" fill="url(#paint1_linear_0_288)"/>
<path opacity="0.48" d="M5.3441 4.39142H4.51396C4.23726 4.39142 4.01086 4.1647 4.01086 3.8876V3.05631C4.01086 2.77921 4.23726 2.55249 4.51396 2.55249H5.3441C5.62081 2.55249 5.8472 2.77921 5.8472 3.05631V3.8876C5.8472 4.1647 5.62081 4.39142 5.3441 4.39142Z" fill="url(#paint2_linear_0_288)"/>
<path opacity="0.32" d="M11.7583 5.75267C11.7583 8.80075 9.29305 11.2946 6.22407 11.2946C3.18024 11.2946 0.68985 8.82594 0.68985 5.75267C0.68985 2.67939 3.15509 0.210693 6.22407 0.210693C9.26789 0.210693 11.7583 2.67939 11.7583 5.75267Z" fill="#54524F"/>
<defs>
<linearGradient id="paint0_linear_0_288" x1="1.57651" y1="5.73976" x2="10.8662" y2="5.73976" gradientUnits="userSpaceOnUse">
<stop stop-color="#4A86FF"/>
<stop offset="0.00123423" stop-color="#4A86FE"/>
<stop offset="0.0959" stop-color="#3868CA"/>
<stop offset="0.1888" stop-color="#29509F"/>
<stop offset="0.2782" stop-color="#1D3D7E"/>
<stop offset="0.363" stop-color="#152F66"/>
<stop offset="0.4414" stop-color="#102757"/>
<stop offset="0.5072" stop-color="#0E2452"/>
<stop offset="0.5628" stop-color="#152B5B"/>
<stop offset="0.653" stop-color="#273F73"/>
<stop offset="0.7666" stop-color="#44609A"/>
<stop offset="0.8977" stop-color="#6C8CD0"/>
<stop offset="1" stop-color="#8FB3FF"/>
</linearGradient>
<linearGradient id="paint1_linear_0_288" x1="2.5783" y1="5.73994" x2="9.8646" y2="5.73994" gradientUnits="userSpaceOnUse">
<stop stop-color="#0E2452" stop-opacity="0"/>
<stop offset="1" stop-color="#0E2452"/>
</linearGradient>
<linearGradient id="paint2_linear_0_288" x1="4.92979" y1="0.145762" x2="4.92979" y2="4.83226" gradientUnits="userSpaceOnUse">
<stop offset="0.3877" stop-color="#F0E9E4"/>
<stop offset="1" stop-color="#F0E9E4" stop-opacity="0"/>
</linearGradient>
</defs>
</svg>
