<svg width="20" height="21" viewBox="0 0 20 21" fill="none" xmlns="http://www.w3.org/2000/svg">
<path d="M18 7.873V15C18 15.663 17.7366 16.2989 17.2678 16.7678C16.7989 17.2366 16.163 17.5 15.5 17.5H4.5C3.83696 17.5 3.20107 17.2366 2.73223 16.7678C2.26339 16.2989 2 15.663 2 15V7.873L9.746 12.431C9.82295 12.4764 9.91066 12.5003 10 12.5003C10.0893 12.5003 10.177 12.4764 10.254 12.431L18 7.873ZM15.5 4.5C16.1151 4.4999 16.7087 4.72661 17.1672 5.13674C17.6257 5.54687 17.9168 6.11164 17.985 6.723L10 11.42L2.015 6.723C2.08316 6.11164 2.37432 5.54687 2.83279 5.13674C3.29127 4.72661 3.88485 4.4999 4.5 4.5H15.5Z" fill="#FF774C"/>
</svg>
