<svg width="9" height="184" viewBox="0 0 9 184" fill="none" xmlns="http://www.w3.org/2000/svg">
<path d="M2.1638 30.7959H6.26415C7.47162 30.7959 8.42753 29.8135 8.42753 28.6295V3.08609C8.42753 1.87693 7.44646 0.919678 6.26415 0.919678H2.1638C0.981493 0.919678 0.000427246 1.87693 0.000427246 3.08609V28.6043C0.000427246 29.8135 0.981493 30.7959 2.1638 30.7959Z" fill="#A19D99"/>
<path d="M2.1638 112.439H6.26415C7.47162 112.439 8.42753 111.456 8.42753 110.272V56.1876C8.42753 54.9785 7.44646 54.0212 6.26415 54.0212H2.1638C0.981493 54.0212 0.000427246 54.9785 0.000427246 56.1876V110.272C0.000427246 111.481 0.981493 112.439 2.1638 112.439Z" fill="#A19D99"/>
<path d="M2.1638 183.654H6.26415C7.47162 183.654 8.42753 182.672 8.42753 181.488V127.403C8.42753 126.194 7.44646 125.237 6.26415 125.237H2.1638C0.981493 125.211 0.000427246 126.194 0.000427246 127.403V181.488C0.000427246 182.672 0.981493 183.654 2.1638 183.654Z" fill="#A19D99"/>
</svg>
