<svg width="195" height="198" viewBox="0 0 195 198" fill="none" xmlns="http://www.w3.org/2000/svg">
<path d="M88.0463 112.787L99.0463 124.069L110.046 112.787M99.0463 122.502V74.0693" stroke="#242F65" stroke-width="1.5" stroke-linecap="round" stroke-linejoin="round"/>
<path d="M119.965 16.1186C119.506 16.6278 118.902 16.9672 118.153 17.1855C117.404 17.3794 116.558 17.3794 115.616 17.1855C114.674 16.9915 113.852 16.6278 113.2 16.1429C112.547 15.658 112.04 15.076 111.726 14.3729C111.411 13.6698 111.315 12.9181 111.411 12.0938L114.239 12.6999C114.19 13.2576 114.311 13.7668 114.601 14.2032C114.891 14.6396 115.35 14.9306 115.978 15.0518C116.534 15.173 116.993 15.1245 117.356 14.8821C117.718 14.6396 117.936 14.3002 118.032 13.8395C118.129 13.4273 118.081 13.0636 117.887 12.7242C117.718 12.409 117.452 12.118 117.114 11.8756C116.776 11.6331 116.317 11.3421 115.713 10.9784C114.939 10.5178 114.311 10.1056 113.852 9.71765C113.393 9.32971 113.03 8.84478 112.765 8.23863C112.499 7.63248 112.475 6.92934 112.644 6.08072C112.885 4.94115 113.49 4.11678 114.456 3.63186C115.423 3.14694 116.582 3.04995 117.96 3.34091C119.361 3.65611 120.424 4.23802 121.101 5.08663C121.802 5.95949 122.068 6.95358 121.947 8.1174L119.071 7.487C119.096 6.97783 118.975 6.5414 118.709 6.17771C118.443 5.78977 118.032 5.54731 117.477 5.42608C116.993 5.32909 116.558 5.35334 116.196 5.54731C115.833 5.74128 115.616 6.08072 115.495 6.56565C115.447 6.97783 115.495 7.34152 115.664 7.65672C115.833 7.97192 116.099 8.23863 116.413 8.48109C116.727 8.72355 117.187 9.01451 117.767 9.35395C118.564 9.83888 119.192 10.2753 119.675 10.6632C120.159 11.0512 120.521 11.5361 120.787 12.1665C121.053 12.7727 121.077 13.5243 120.908 14.3729C120.739 15.0276 120.449 15.6095 119.965 16.1186Z" fill="#242F65"/>
<path d="M139.876 12.2635C140.553 13.5243 140.77 14.9063 140.48 16.4338L137.846 15.2942C137.87 14.4941 137.677 13.791 137.266 13.1363C136.856 12.5059 136.252 11.9968 135.454 11.6573C134.802 11.3664 134.125 11.2694 133.449 11.3664C132.772 11.4633 132.144 11.7543 131.588 12.2392C131.032 12.7241 130.573 13.3788 130.211 14.2274C129.848 15.0518 129.703 15.8277 129.727 16.5793C129.752 17.3309 129.969 17.9856 130.356 18.5432C130.742 19.1009 131.274 19.5373 131.926 19.8283C132.724 20.1677 133.497 20.2889 134.246 20.1435C134.995 19.998 135.647 19.6585 136.203 19.1009L138.837 20.2405C137.919 21.477 136.759 22.2771 135.382 22.6408C134.004 23.0045 132.53 22.8348 130.984 22.1559C129.8 21.6467 128.857 20.8951 128.181 19.9737C127.504 19.0281 127.118 17.9613 127.045 16.7733C126.973 15.5852 127.19 14.3729 127.722 13.1363C128.253 11.8998 129.002 10.9057 129.921 10.1298C130.839 9.37818 131.878 8.9175 133.014 8.79627C134.149 8.6508 135.333 8.84476 136.541 9.37818C138.088 10.0328 139.199 11.0027 139.876 12.2635Z" fill="#242F65"/>
<path d="M147.512 31.563L147.947 25.356L146.956 24.6771L143.911 29.0414L141.688 27.4654L149.517 16.2637L153.77 19.2459C155.075 20.1673 155.824 21.1614 156.066 22.2767C156.307 23.392 156.066 24.4589 155.341 25.5015C154.761 26.3501 154.012 26.8835 153.142 27.1259C152.272 27.3684 151.33 27.2714 150.315 26.835L149.976 33.2602L147.512 31.563ZM148.043 23.1496L149.88 24.4346C151.16 25.3317 152.2 25.2105 152.973 24.0709C153.359 23.5375 153.48 23.0041 153.384 22.4707C153.287 21.9373 152.9 21.4523 152.248 20.9917L150.411 19.7066L148.043 23.1496Z" fill="#242F65"/>
<path d="M170.177 34.9095C170.467 36.0733 170.419 37.2371 170.056 38.4009C169.694 39.5647 169.041 40.6073 168.051 41.5287C167.084 42.45 165.997 43.0562 164.813 43.3714C163.629 43.6623 162.445 43.6381 161.309 43.2987C160.173 42.9592 159.159 42.3046 158.289 41.3832C157.419 40.4619 156.839 39.4193 156.549 38.2555C156.259 37.0916 156.307 35.9278 156.67 34.7398C157.032 33.5759 157.709 32.5091 158.675 31.5878C159.642 30.6664 160.729 30.0603 161.913 29.7693C163.097 29.4783 164.257 29.5026 165.393 29.842C166.528 30.1815 167.543 30.8361 168.413 31.7575C169.307 32.7031 169.887 33.7457 170.177 34.9095ZM164.765 32.3394C164.088 32.1454 163.387 32.1454 162.662 32.3636C161.937 32.5819 161.237 32.994 160.584 33.6244C159.932 34.2548 159.473 34.9095 159.207 35.6369C158.941 36.34 158.893 37.0431 159.062 37.7463C159.207 38.4252 159.569 39.0798 160.125 39.6617C160.681 40.2436 161.285 40.6316 161.962 40.8255C162.638 41.0195 163.339 40.9953 164.064 40.7771C164.789 40.5588 165.489 40.1467 166.142 39.5163C166.794 38.8859 167.253 38.2312 167.519 37.5038C167.785 36.7764 167.833 36.0975 167.664 35.3944C167.519 34.7155 167.157 34.0609 166.601 33.479C166.069 32.9213 165.465 32.5334 164.765 32.3394Z" fill="#242F65"/>
<path d="M169.525 52.0997L172.014 55.9549L170.25 57.0945L166.311 50.9359L177.789 43.5166L179.263 45.82L169.525 52.0997Z" fill="#242F65"/>
<path d="M175.711 63.3739L177.595 67.5685L175.686 68.4171L172.69 61.7252L185.134 56.1001L186.246 58.5974L175.711 63.3739Z" fill="#242F65"/>
<path d="M184.482 91.6695C183.37 91.2573 182.476 90.5542 181.751 89.5843C181.027 88.5903 180.567 87.378 180.35 85.8989L179.649 81.0739L193.133 79.0615L193.833 83.8623C194.051 85.3413 193.954 86.6506 193.567 87.7901C193.181 88.9297 192.504 89.8753 191.586 90.5784C190.668 91.2816 189.508 91.7423 188.155 91.9362C186.802 92.2029 185.593 92.0817 184.482 91.6695ZM184.361 88.5418C185.255 89.2207 186.367 89.4631 187.744 89.2692C189.146 89.0752 190.16 88.4933 190.789 87.5962C191.441 86.6748 191.659 85.511 191.441 84.032L191.151 82.165L182.428 83.4501L182.694 85.317C182.935 86.7718 183.467 87.8386 184.361 88.5418Z" fill="#242F65"/>
<path d="M193.833 109.296C193.157 110.29 192.287 111.066 191.175 111.575C190.064 112.109 188.856 112.327 187.527 112.23C186.198 112.133 185.014 111.745 183.999 111.066C182.984 110.387 182.211 109.514 181.679 108.448C181.172 107.381 180.954 106.193 181.027 104.908C181.123 103.623 181.486 102.483 182.162 101.489C182.815 100.495 183.709 99.7189 184.82 99.2097C185.932 98.6763 187.14 98.4581 188.493 98.5551C189.822 98.6521 191.006 99.04 192.021 99.6947C193.036 100.374 193.809 101.246 194.341 102.313C194.848 103.38 195.066 104.568 194.993 105.853C194.872 107.162 194.51 108.302 193.833 109.296ZM192.069 103.574C191.755 102.944 191.272 102.434 190.62 102.047C189.967 101.659 189.194 101.44 188.3 101.368C187.406 101.295 186.608 101.416 185.908 101.707C185.207 101.998 184.651 102.434 184.265 103.016C183.854 103.598 183.636 104.277 183.588 105.077C183.54 105.877 183.66 106.581 183.975 107.235C184.289 107.866 184.772 108.375 185.424 108.763C186.077 109.151 186.85 109.369 187.744 109.442C188.638 109.514 189.436 109.393 190.136 109.102C190.837 108.811 191.393 108.375 191.779 107.793C192.19 107.211 192.408 106.532 192.456 105.732C192.504 104.908 192.383 104.204 192.069 103.574Z" fill="#242F65"/>
<path d="M187.309 138.416L175.372 130.997L176.411 127.796L186.608 128.427L178.006 122.898L179.045 119.722L193.06 120.765L192.142 123.577L181.437 122.292L190.644 128.16L189.725 130.997L178.828 130.318L188.227 135.603L187.309 138.416Z" fill="#242F65"/>
<path d="M165.635 148.599L167.084 146.272L178.175 146.005L170.322 141.083L171.772 138.755L183.346 146.005L181.897 148.333L170.733 148.551L178.659 153.521L177.209 155.849L165.635 148.599Z" fill="#242F65"/>
<path d="M158.579 175.585L157.153 173.961L159.956 171.439L152.32 162.832L154.35 161.013L161.986 169.621L164.789 167.123L166.239 168.748L158.579 175.585Z" fill="#242F65"/>
<path d="M143.621 184.629C142.437 184.653 141.302 184.338 140.239 183.732C139.175 183.126 138.306 182.228 137.629 181.065C136.952 179.901 136.59 178.713 136.566 177.476C136.542 176.24 136.832 175.124 137.411 174.082C138.016 173.039 138.861 172.191 139.949 171.536C141.036 170.881 142.196 170.566 143.38 170.542C144.564 170.518 145.7 170.833 146.763 171.439C147.826 172.069 148.696 172.942 149.372 174.106C150.049 175.27 150.411 176.458 150.411 177.67C150.436 178.883 150.146 180.022 149.566 181.065C148.962 182.107 148.116 182.956 147.029 183.611C145.965 184.289 144.806 184.629 143.621 184.629ZM147.319 179.925C147.657 179.295 147.802 178.616 147.753 177.864C147.705 177.113 147.439 176.337 147.004 175.561C146.545 174.785 145.99 174.179 145.361 173.767C144.733 173.354 144.056 173.136 143.356 173.136C142.655 173.136 141.954 173.33 141.278 173.742C140.577 174.155 140.069 174.664 139.731 175.294C139.393 175.924 139.248 176.603 139.296 177.355C139.345 178.107 139.61 178.883 140.069 179.658C140.529 180.434 141.084 181.04 141.713 181.453C142.341 181.865 143.017 182.059 143.718 182.083C144.419 182.083 145.12 181.889 145.796 181.477C146.473 181.065 146.98 180.556 147.319 179.925Z" fill="#242F65"/>
<path d="M113.272 183.781C113.465 183.126 113.852 182.544 114.456 182.035C115.036 181.526 115.809 181.162 116.752 180.919C117.694 180.701 118.564 180.653 119.386 180.798C120.207 180.944 120.908 181.259 121.488 181.744C122.068 182.229 122.503 182.883 122.768 183.659L119.941 184.338C119.748 183.805 119.434 183.417 118.975 183.15C118.516 182.883 117.984 182.811 117.38 182.98C116.824 183.102 116.438 183.368 116.22 183.732C116.003 184.096 115.93 184.508 116.051 184.969C116.148 185.381 116.341 185.696 116.655 185.914C116.945 186.132 117.307 186.278 117.718 186.351C118.129 186.423 118.661 186.496 119.361 186.545C120.255 186.617 121.004 186.739 121.584 186.884C122.189 187.03 122.72 187.32 123.203 187.733C123.687 188.169 124.049 188.799 124.242 189.624C124.508 190.763 124.315 191.757 123.662 192.63C123.01 193.479 121.995 194.085 120.642 194.4C119.241 194.74 118.032 194.667 117.042 194.182C116.051 193.697 115.35 192.921 114.988 191.806L117.839 191.127C118.032 191.588 118.322 191.927 118.733 192.17C119.144 192.388 119.627 192.436 120.183 192.315C120.666 192.194 121.029 191.976 121.27 191.636C121.512 191.297 121.56 190.885 121.439 190.4C121.343 190.012 121.149 189.721 120.86 189.503C120.57 189.309 120.231 189.163 119.82 189.09C119.434 189.018 118.902 188.945 118.226 188.896C117.307 188.799 116.534 188.678 115.954 188.557C115.35 188.412 114.819 188.145 114.311 187.708C113.804 187.272 113.441 186.617 113.248 185.769C113.055 185.09 113.055 184.435 113.272 183.781Z" fill="#242F65"/>
<path d="M104.815 194.546L104.597 191.006L99.7646 191.321L99.6438 189.236L104.452 188.921L104.211 185.235L98.7981 185.575L98.6531 183.393L106.772 182.859L107.642 196.51L99.523 197.043L99.378 194.885L104.815 194.546Z" fill="#242F65"/>
<path d="M89.2292 194.449L89.5917 190.909L84.7832 190.424L85.0006 188.339L89.8092 188.824L90.1716 185.163L84.7832 184.629L85.0006 182.447L93.0954 183.247L91.7423 196.873L83.6475 196.073L83.8649 193.915L89.2292 194.449Z" fill="#242F65"/>
<path d="M57.7683 187.805C57.0434 186.86 56.5843 185.793 56.4393 184.58C56.2943 183.368 56.4635 182.132 56.9709 180.895C57.4783 179.659 58.2032 178.64 59.1698 177.864C60.1363 177.088 61.1995 176.628 62.3835 176.482C63.5675 176.337 64.7516 176.482 65.9356 176.967C67.1196 177.452 68.0861 178.155 68.811 179.101C69.5601 180.046 69.9951 181.113 70.14 182.35C70.285 183.562 70.1159 184.799 69.6084 186.035C69.101 187.272 68.3761 188.29 67.4096 189.042C66.443 189.793 65.3798 190.254 64.1958 190.424C63.0118 190.569 61.8278 190.424 60.6438 189.939C59.4597 189.454 58.4932 188.751 57.7683 187.805ZM63.7367 187.902C64.4374 187.805 65.0657 187.49 65.6456 187.005C66.2255 186.496 66.6605 185.841 67.0229 184.993C67.3612 184.144 67.5062 183.368 67.4337 182.592C67.3854 181.841 67.1438 181.162 66.7088 180.604C66.298 180.046 65.6939 179.61 64.969 179.295C64.22 179.004 63.5192 178.883 62.8185 179.004C62.1177 179.101 61.4895 179.416 60.9096 179.925C60.3296 180.434 59.8947 181.089 59.5322 181.938C59.1939 182.786 59.049 183.562 59.1215 184.338C59.1939 185.09 59.4114 185.744 59.8464 186.326C60.2813 186.884 60.8612 187.32 61.5861 187.636C62.311 187.951 63.0601 187.999 63.7367 187.902Z" fill="#242F65"/>
<path d="M44.9133 181.574L49.4319 174.955C50.0359 174.058 50.3018 173.282 50.2051 172.555C50.1084 171.828 49.6977 171.246 48.9728 170.736C48.2478 170.252 47.5471 170.082 46.8464 170.252C46.1456 170.421 45.5174 170.955 44.9133 171.852L40.4188 178.471L38.1958 176.943L42.6902 170.3C43.391 169.257 44.1884 168.506 45.0824 168.045C45.9523 167.584 46.8705 167.415 47.7887 167.536C48.707 167.657 49.601 168.021 50.4709 168.603C51.8241 169.524 52.6215 170.664 52.8873 172.046C53.1531 173.404 52.7423 174.883 51.6791 176.459L47.1847 183.102L44.9133 181.574Z" fill="#242F65"/>
<path d="M36.3352 156.722L34.8129 162.735L35.6586 163.583L39.4282 159.825L41.3371 161.765L31.6475 171.391L27.9988 167.681C26.8873 166.541 26.3073 165.426 26.2832 164.287C26.259 163.147 26.6698 162.129 27.5638 161.232C28.2887 160.504 29.1103 160.092 30.0044 160.019C30.8984 159.947 31.8166 160.189 32.7348 160.795L34.2088 154.515L36.3352 156.722ZM34.3055 164.917L32.7348 163.317C31.6475 162.201 30.6085 162.129 29.6177 163.123C29.1586 163.583 28.917 164.093 28.917 164.602C28.917 165.135 29.207 165.693 29.7627 166.251L31.3334 167.851L34.3055 164.917Z" fill="#242F65"/>
<path d="M23.1902 142.441L20.9188 138.464L22.7311 137.422L26.3556 143.774L14.5155 150.588L13.1623 148.211L23.1902 142.441Z" fill="#242F65"/>
<path d="M15.0472 125.784L16.8837 130.948L19.7833 130.924L20.7498 133.64L6.34836 133.446L5.30933 130.512L16.3279 121.226L17.2945 123.941L15.0472 125.784ZM13.3316 127.19L8.59557 131.045L14.6848 130.997L13.3316 127.19Z" fill="#242F65"/>
<path d="M0.403992 109.248L2.53039 108.909L3.11031 112.643L14.443 110.873L14.8538 113.564L3.52109 115.334L4.10102 119.044L1.95046 119.383L0.403992 109.248Z" fill="#242F65"/>
<path d="M2.19217 99.1857L5.72005 99.2342L5.76838 94.385L7.84645 94.4092L7.79812 99.2584L11.471 99.3069L11.5435 93.8758L13.7182 93.9L13.6215 102.071L-0.00671387 101.877L0.0899404 93.7061L2.2405 93.7303L2.19217 99.1857Z" fill="#242F65"/>
<path d="M14.1048 79.2313C14.6123 79.6919 14.9989 80.2739 15.2164 81.0012C15.4338 81.7286 15.458 82.6015 15.2888 83.5471C15.1197 84.4927 14.8056 85.3171 14.3223 86.0202C13.8632 86.7233 13.2833 87.2325 12.6067 87.5719C11.9059 87.9114 11.1569 88.0326 10.3353 87.9599L10.8669 85.0988C11.4227 85.1473 11.9059 85.0019 12.3409 84.6867C12.7758 84.3715 13.0416 83.9108 13.1625 83.2804C13.2591 82.7227 13.1866 82.262 12.945 81.9226C12.7033 81.5589 12.3409 81.3407 11.8818 81.2679C11.471 81.1952 11.1085 81.2437 10.7703 81.4377C10.4561 81.6316 10.1662 81.8983 9.9487 82.2378C9.70706 82.5772 9.44126 83.0379 9.10297 83.6683C8.66803 84.4442 8.28141 85.0988 7.89479 85.5838C7.53234 86.0687 7.04907 86.4566 6.46914 86.7233C5.88922 87.0143 5.16431 87.0628 4.34275 86.9173C3.1829 86.6991 2.36134 86.1172 1.8539 85.1716C1.34647 84.226 1.20149 83.0622 1.46728 81.6801C1.73308 80.2496 2.28885 79.1828 3.11041 78.4554C3.95613 77.728 4.94684 77.4128 6.10669 77.5098L5.57509 80.4193C5.06766 80.4193 4.65688 80.5406 4.27026 80.8073C3.90781 81.074 3.66617 81.5104 3.56952 82.0681C3.47286 82.553 3.54535 82.9894 3.73866 83.3531C3.93197 83.7168 4.29442 83.935 4.77769 84.0078C5.16431 84.0805 5.52676 84.032 5.81673 83.838C6.10669 83.6441 6.39665 83.4016 6.61412 83.0622C6.8316 82.7227 7.12156 82.262 7.43569 81.6801C7.89479 80.88 8.30557 80.2254 8.66803 79.7404C9.03048 79.2555 9.51375 78.8676 10.1178 78.5766C10.7219 78.2857 11.4468 78.2372 12.3167 78.3826C12.9933 78.5039 13.5732 78.7948 14.1048 79.2313Z" fill="#242F65"/>
<path d="M7.94304 60.1978L9.97278 60.9494L8.66794 64.4893L19.4207 68.5142L18.4784 71.0843L7.72556 67.0594L6.42073 70.5751L4.39099 69.8235L7.94304 60.1978Z" fill="#242F65"/>
<path d="M27.2014 30.8115L35.7553 41.989L33.653 44.6076L24.3501 40.3888L30.4634 48.6082L28.3612 51.2268L15.627 45.2865L17.4634 42.9831L27.0081 47.9778L20.4597 39.2249L22.3203 36.8731L32.2757 41.3828L25.3408 33.1149L27.2014 30.8115Z" fill="#242F65"/>
<path d="M41.8688 19.6339C43.0528 19.4884 44.2126 19.6581 45.3242 20.143C46.4357 20.6279 47.4022 21.4038 48.2238 22.4707C49.0212 23.5375 49.5286 24.6771 49.6736 25.9136C49.8428 27.1259 49.6978 28.2897 49.2145 29.3808C48.7554 30.4719 48.0063 31.4175 46.9915 32.1934C45.9766 32.9692 44.8651 33.4299 43.681 33.5754C42.497 33.7209 41.3372 33.5511 40.2257 33.0662C39.1141 32.5813 38.1476 31.7812 37.326 30.7143C36.5286 29.6475 36.0212 28.5079 35.8762 27.2956C35.7071 26.0833 35.8762 24.9195 36.3353 23.8284C36.8186 22.7374 37.5435 21.7918 38.5584 21.0159C39.5732 20.2643 40.6848 19.8036 41.8688 19.6339ZM38.7275 24.7498C38.4617 25.4044 38.3892 26.1076 38.5342 26.8592C38.6792 27.6108 39.0175 28.3382 39.5491 29.0656C40.0807 29.793 40.7089 30.3022 41.3855 30.6416C42.0621 30.9811 42.7628 31.1023 43.4636 31.0295C44.1643 30.9568 44.8409 30.6659 45.4692 30.1809C46.0974 29.696 46.5565 29.1383 46.8223 28.4837C47.0881 27.8291 47.1606 27.1259 47.0156 26.3743C46.8706 25.6227 46.5324 24.8953 46.0008 24.1679C45.4692 23.4405 44.8409 22.9313 44.1643 22.5919C43.4877 22.2524 42.787 22.1312 42.0863 22.2039C41.3855 22.2767 40.7089 22.5676 40.0807 23.0526C39.4524 23.5375 38.9933 24.0951 38.7275 24.7498Z" fill="#242F65"/>
<path d="M63.6158 22.1802L58.4448 18.7372L57.3575 19.2464L59.653 24.0471L57.1883 25.2352L51.3166 12.9182L56.0043 10.6633C57.43 9.98438 58.6865 9.81465 59.7738 10.1541C60.8612 10.4935 61.6828 11.2452 62.2144 12.3847C62.6493 13.3303 62.7701 14.2275 62.5526 15.1003C62.3352 15.9732 61.7794 16.7491 60.9095 17.4279L66.3222 20.8951L63.6158 22.1802ZM56.5601 17.5734L58.5898 16.6036C59.9913 15.9247 60.4021 14.9791 59.798 13.7183C59.508 13.1121 59.1214 12.7484 58.614 12.5787C58.1066 12.409 57.5025 12.506 56.7776 12.8454L54.7478 13.8153L56.5601 17.5734Z" fill="#242F65"/>
<path d="M74.6585 11.0027L82.0043 16.2641L78.8147 17.1127L72.3388 12.3362L73.9336 18.3978L71.2998 19.1009L67.8203 5.86251L70.4541 5.15937L72.0247 11.0997L75.3593 3.85008L78.5247 3.00146L74.6585 11.0027Z" fill="#242F65"/>
<path d="M96.6711 0.115418L98.8703 5.09419L104.221 6.09356L100.18 9.74477L100.875 15.1381L96.1777 12.4266L91.2622 14.7556L92.403 9.43751L88.6665 5.47905L94.064 4.90294L96.6711 0.115418Z" fill="#F3764F"/>
</svg>
