<svg width="54" height="6" viewBox="0 0 54 6" fill="none" xmlns="http://www.w3.org/2000/svg">
<path opacity="0.57" d="M51.2254 5.07001H2.75067C1.46774 5.07001 0.411194 4.01199 0.411194 2.72726C0.411194 1.44253 1.46774 0.384521 2.75067 0.384521H51.2254C52.5083 0.384521 53.5648 1.44253 53.5648 2.72726C53.5648 4.03718 52.5335 5.07001 51.2254 5.07001Z" fill="#54524F"/>
<path d="M2.75067 1.39235H51.2254C52.3322 1.39235 53.2378 2.19846 53.4642 3.23128C53.4894 3.08014 53.5648 2.9038 53.5648 2.75266C53.5648 1.46793 52.5083 0.409912 51.2254 0.409912H2.75067C1.46774 0.409912 0.411194 1.46793 0.411194 2.75266C0.411194 2.92899 0.486663 3.08014 0.511818 3.23128C0.763374 2.17327 1.64383 1.39235 2.75067 1.39235Z" fill="#191B1C"/>
</svg>
